<?xml version="1.0" encoding="utf-8"?>
<!-- Generator: Adobe Illustrator 16.0.0, SVG Export Plug-In . SVG Version: 6.00 Build 0)  -->
<!DOCTYPE svg PUBLIC "-//W3C//DTD SVG 1.1//EN" "http://www.w3.org/Graphics/SVG/1.1/DTD/svg11.dtd">
<svg version="1.1" xmlns="http://www.w3.org/2000/svg" xmlns:xlink="http://www.w3.org/1999/xlink" x="0px" y="0px" width="800px"
	 height="800px" viewBox="0 0 800 800" enable-background="new 0 0 800 800" xml:space="preserve">
<g id="Layer_1">
</g>
<g id="Layer_2">
</g>
<g id="Layer_3">
</g>
<g id="Layer_4">
</g>
<g id="Layer_5">
</g>
<g id="Layer_6">
</g>
<g id="Layer_7">
</g>
<g id="Layer_8">
</g>
<g id="Layer_9">
</g>
<g id="Layer_10">
</g>
<g id="Layer_11">
</g>
<g id="fractured">
	<g id="colors">
	</g>
	<g id="Layer_18">
	</g>
	<g id="Layer_19">
	</g>
	<g id="Layer_20">
	</g>
	<g id="Layer_21">
	</g>
	<g id="Layer_22">
	</g>
	<g id="Layer_23">
	</g>
	<g id="Layer_24">
	</g>
	<g id="Layer_25">
	</g>
	<g id="Layer_26">
	</g>
	<g id="Layer_27">
	</g>
	<g id="Layer_28">
	</g>
	<g id="Layer_29">
	</g>
	<g id="Layer_30">
	</g>
	<g id="Layer_31">
	</g>
	<g id="Layer_32">
	</g>
</g>
<g id="Layer_36">
</g>
<g id="Layer_12">
</g>
<g id="Layer_13">
</g>
<g id="Layer_14">
</g>
<g id="Layer_15">
</g>
<g id="Layer_35">
	<g>
		<path fill="#2CB456" d="M379.805,123.914c-8.667,1.092-14.435,12.994-14.435,12.994L127.844,571.887
			c3.028,3.82,65,146.424,273,146.424c173.279,0,283.5-146.424,283.5-146.424l-287.64-435.27
			C396.704,136.617,388.813,122.781,379.805,123.914"/>
		<path fill="#2CB456" d="M364.657,103.645c4.323-6.248,15.674-19.455,30.387-0.004c6.103,6.109,188.656,273.596,341.4,498.574
			c32.888-56.766,49.106-126.445,48.851-196.73C784.522,193.684,611.75,22.615,399.398,23.389
			c-212.352,0.775-383.872,173.102-383.1,384.9c0.263,71.936,20.372,139.168,55.128,196.57
			C182.568,409.641,327.674,157.086,364.657,103.645"/>
		<path fill="#2CB355" d="M52.583,569.729c0.262,0.641,5.25,14.068,16.978,33.715c8.797,14.734,21.137,33.072,37.533,52.365
			c12.298,14.469,26.879,29.475,43.965,43.869c25.624,21.586,56.913,41.803,94.429,56.594
			c37.506,14.799,81.218,24.125,131.308,24.115c76.81,0.012,139.388-14.037,189.805-35.41c37.813-16.018,68.756-36.127,93.792-57.27
			c37.568-31.721,64.351-61.951,79.294-88.115c14.945-26.176,19.625-45.41,19.917-46.367l-31.573-9.021l14.303,4.33l-14.282-4.4
			l-0.021,0.07l14.303,4.33l-14.282-4.4l-0.012,0.037l3.286,1.006l-3.283-1.014l-0.003,0.008l3.286,1.006l-3.283-1.014
			c-0.009,0.035-4.049,13.09-14.514,32.5c-7.847,14.561-21.807,28.951-37.856,47.912c-12.039,14.225-26.658,28.918-44.303,42.965
			c-26.474,21.07-59.732,40.705-101.54,55.15c-41.81,14.438-92.211,23.693-153.035,23.697c-27.192,0-40.57-0.599-63.328-5.78
			c-39.818-9.074-84.723-27.269-112.665-45.966c-20.948-14.023-38.793-29.684-53.773-45.307
			c-22.47-23.428-38.475-46.781-48.771-64.15c-5.149-8.682-8.874-15.863-11.276-20.797c-1.202-2.467-2.074-4.371-2.628-5.619
			c-0.277-0.625-0.476-1.084-0.596-1.369c-0.061-0.143-0.103-0.24-0.124-0.293l-0.019-0.045l-3.024,1.24l3.024-1.24l-3.024,1.24
			l3.024-1.24l-0.014-0.035l-12.882,5.316l12.906-5.258l-0.024-0.059l-12.882,5.316l12.906-5.258L52.583,569.729"/>
		<path fill="#77C269" d="M128.357,571.373L389.59,452.99l6.924,262.909c0,0-85.001,4.356-166.169-41.765
			C152.984,630.178,128.357,571.373,128.357,571.373"/>
		<path fill="#18A049" d="M684.344,571.887L389.077,453.504L396,716.413c0,0,87.667,5.921,164.136-40.744
			C651.546,619.886,684.344,571.887,684.344,571.887"/>
		<path fill="#BFE1BF" d="M381.486,123.48l0.01,0.391c8.282,0.603,15.208,12.746,15.208,12.746l287.419,434.937l0.733-0.181
			L571.269,399.486l-142.541-215.7l-8.409-12.725l-12.896-19.515l-6.113-9.25l-7.171-10.645c0,0-3.376-4.541-7.156-6.61
			C385.084,124.003,382.827,123.621,381.486,123.48 M380.319,123.4l0.008,0.312c0.398-0.121,0.716-0.205,0.917-0.255
			C380.671,123.404,380.319,123.4,380.319,123.4"/>
		<polyline fill="#6EC06B" points="389.603,453.479 389.608,453.717 389.609,453.717 389.603,453.479 		"/>
		<polyline fill="#3DAA55" points="389.608,453.717 394.263,642.933 683.746,571.646 389.609,453.717 389.608,453.717 		"/>
		<path fill="#98CD9A" d="M380.327,123.712c-0.215,0.065-0.454,0.141-0.709,0.228l0.188-0.025c0.176-0.021,0.351-0.038,0.526-0.049
			L380.327,123.712 M381.484,123.4c0,0-0.085,0.019-0.24,0.057l0.242,0.023L381.484,123.4"/>
		<polyline fill="#5AB95E" points="389.17,453.182 128.357,571.373 394.064,642.879 389.077,453.504 389.18,453.545 389.17,453.182 
					"/>
		<polyline fill="#2CAA50" points="389.077,453.504 394.064,642.879 394.263,642.933 389.18,453.545 389.077,453.504 		"/>
		<path fill="#7DC483" d="M381.245,123.457c-0.201,0.05-0.52,0.134-0.917,0.255l0.004,0.153c0.178-0.012,0.355-0.017,0.532-0.017
			c0.212,0,0.423,0.008,0.633,0.022l-0.01-0.391L381.245,123.457"/>
		<path fill="#3EB45A" d="M380.863,123.849c-0.177,0-0.354,0.005-0.532,0.017l8.839,329.316l0.42-0.191l0.013,0.489l-8.107-329.608
			C381.286,123.856,381.075,123.849,380.863,123.849"/>
		<polyline fill="#54B85F" points="389.59,452.99 389.17,453.182 389.18,453.545 389.608,453.717 389.603,453.479 389.59,452.99 		
			"/>
		<polyline fill="#3AAE56" points="389.18,453.545 394.263,642.933 389.608,453.717 389.18,453.545 		"/>
		<path fill="#FFFFFF" d="M396.271,182.289c-11.004-12.464-22.411,0.337-22.411,0.337l-118.154,200.76l65.512-31.245l29.422,42.638
			l40.2-35.041l33.231,65.831l26.958-68.715l81.976,31.946C533.005,388.8,408.933,194.949,396.271,182.289z"/>
		<path fill="#46B75E" d="M396.704,137.838c0,0-6.926-12.144-15.208-12.746l1.282,52.113c3.939-0.952,8.767,0.951,13.494,6.305
			c12.661,12.66,136.734,206.511,136.734,206.511l-81.976-31.946l-26.958,68.715l-33.231-65.831l-3.468,3.022l2.231,90.72
			l0.006,0.237l294.136,117.93l0.378-0.093L396.704,137.838z"/>
	</g>
</g>
</svg>
